<svg width="62" height="54" viewBox="0 0 62 54" fill="none" xmlns="http://www.w3.org/2000/svg">
<path d="M2.5 27.5L29.4398 3.44661C29.8232 3.10428 30.0149 2.93312 30.233 2.86986C30.4093 2.81871 30.5963 2.81708 30.7734 2.86516C30.9926 2.92461 31.1872 3.09242 31.5765 3.42802L59.5 27.5" stroke="black" stroke-width="4" stroke-linecap="round" stroke-linejoin="round"/>
<path d="M31 52H15.8673C15.3696 52 14.9477 51.6341 14.8773 51.1414L10.5 20.5" stroke="black" stroke-width="4"/>
<path d="M30.5 52H45.6327C46.1304 52 46.5523 51.6341 46.6227 51.1414L51 20.5" stroke="black" stroke-width="4"/>
<path d="M25.5 52C24.5607 51.508 24.0175 34.7827 24.0004 34.2499C24.0004 34.2487 24.0004 34.2481 24.0002 34.2428C24.0002 34.2386 24.0001 34.2328 24 34.2286C24 34.2233 24 34.2194 24 34.2114C24.0133 30.2263 27.1422 27 31 27C34.8558 27 37.9834 30.2229 37.9999 34.2051C38 34.215 38 34.2199 37.9999 34.2266C37.9999 34.2319 37.9998 34.2391 37.9996 34.2443C37.9994 34.251 37.9994 34.253 37.9992 34.2571C37.9726 34.9175 37.2919 51.51 36 52" stroke="black" stroke-width="4"/>
</svg>
